<svg width="80" height="80" viewBox="0 0 80 80" fill="none" xmlns="http://www.w3.org/2000/svg">
<path d="M39.982 77C19.778 77 3.53998 61.17 3.01398 40.962C2.75598 31.084 6.36198 21.694 13.166 14.526C19.97 7.358 29.158 3.27 39.038 3.012C39.366 3.004 39.692 3 40.018 3C60.224 3 76.462 18.83 76.986 39.038C77.244 48.916 73.638 58.306 66.834 65.474C60.03 72.642 50.842 76.73 40.962 76.988C40.634 76.996 40.308 77 39.982 77Z" fill="#1443A3"/>
<path d="M40.022 2V4C59.678 4 75.476 19.402 75.988 39.064C76.238 48.676 72.73 57.812 66.11 64.786C59.49 71.76 50.55 75.738 40.938 75.988C40.618 75.996 40.298 76 39.982 76C20.324 76 4.52397 60.598 4.01397 40.936C3.76397 31.324 7.27197 22.188 13.892 15.214C20.512 8.24 29.452 4.262 39.064 4.012C39.382 4.004 39.702 4 40.018 4L40.022 2ZM40.018 2C39.684 2 39.346 2.004 39.012 2.014C18.032 2.558 1.46797 20.008 2.01397 40.988C2.54997 61.632 19.452 78 39.982 78C40.316 78 40.654 77.996 40.988 77.986C61.968 77.44 78.532 59.99 77.986 39.012C77.45 18.368 60.548 1.998 40.018 2Z" fill="#1443A3"/>
<path d="M40 51C39.2044 51 38.4413 51.3161 37.8787 51.8787C37.3161 52.4413 37 53.2043 37 54C37 54.7957 37.3161 55.5587 37.8787 56.1213C38.4413 56.6839 39.2044 57 40 57C40.7956 57 41.5587 56.6839 42.1213 56.1213C42.6839 55.5587 43 54.7957 43 54C43 53.2043 42.6839 52.4413 42.1213 51.8787C41.5587 51.3161 40.7956 51 40 51ZM38 20H42V46H38V20Z" fill="white"/>
</svg>
